<svg id="Layer_1" data-name="Layer 1" xmlns="http://www.w3.org/2000/svg" viewBox="0 0 576 576"><defs><style>.cls-1{fill:#231f20;}.cls-2{fill:#fff;}</style></defs><polygon class="cls-1" points="475.78 189.83 314.19 283.15 292.2 270.45 292.2 83.8 475.78 189.83"/><polygon class="cls-1" points="484.35 386.07 484.35 386.28 484.17 386.18 484.35 386.07"/><path class="cls-2" d="M484.17,386.18l.18.1v-.21Z"/><polygon class="cls-1" points="91.65 386.07 91.83 386.18 91.65 386.28 91.65 386.07"/><polygon class="cls-1" points="283.8 83.8 283.8 270.45 261.81 283.15 100.22 189.83 283.8 83.8"/><path class="cls-2" d="M91.65,386.07v.21l.18-.1Zm0-196.35v.21l.18-.1Z"/><polygon class="cls-1" points="480.15 197 480.15 383.65 479.97 383.75 475.78 386.17 292.2 492.2 292.2 305.55 314.19 292.85 318.38 290.43 322.59 288 480.15 197"/><path class="cls-2" d="M484.17,386.18l.18.1v-.21Z"/><polygon class="cls-1" points="91.83 189.83 91.65 189.93 91.65 189.72 91.83 189.83"/><polygon class="cls-1" points="283.8 305.55 283.8 492.2 100.22 386.17 96.03 383.75 95.85 383.65 95.85 197 253.41 288 257.62 290.43 261.81 292.85 283.8 305.55"/><path class="cls-2" d="M91.65,189.72v.21l.18-.1Zm0,196.35v.21l.18-.1Z"/></svg>