<svg id="Layer_1" data-name="Layer 1" xmlns="http://www.w3.org/2000/svg" viewBox="0 0 496.11 504.74"><defs><style>.cls-1{fill:#231f20;stroke:#cf9331;stroke-width:2.11px;}.cls-1,.cls-4,.cls-9{stroke-miterlimit:10;}.cls-2{font-size:44.54px;fill:#fff;}.cls-2,.cls-3{font-family:OpenSans-Bold, Open Sans;font-weight:700;}.cls-3{font-size:60.74px;fill:#e23330;}.cls-4,.cls-9{fill:#f1a933;stroke:#d58f32;}.cls-4{stroke-width:1.05px;}.cls-5{fill:#c7392c;}.cls-6{fill:#e0352c;}.cls-7{fill:#a6302b;}.cls-8{fill:#752120;}.cls-9{stroke-width:0.53px;}</style></defs><circle class="cls-1" cx="248.05" cy="248.05" r="247"/><text class="cls-2" transform="matrix(-0.16, -0.99, 0.99, -0.16, 46.35, 294.2)">S</text><text class="cls-2" transform="matrix(-0.04, -1, 1, -0.04, 42.33, 270.92)">P</text><text class="cls-2" transform="translate(41.22 243.86) rotate(-85.45)">E</text><text class="cls-2" transform="translate(42.96 219.88) rotate(-78.31)">C</text><text class="cls-2" transform="translate(48.86 192.9) rotate(-72.5)">I</text><text class="cls-2" transform="translate(52.61 179.44) rotate(-66.37)">A</text><text class="cls-2" transform="translate(64.66 152.21) rotate(-58.87)">L</text><text class="cls-2" transform="translate(77.56 131.36) rotate(-53.96)"> </text><text class="cls-2" transform="matrix(0.68, -0.73, 0.73, 0.68, 83.06, 122.1)">M</text><text class="cls-2" transform="translate(111.21 92.63) rotate(-37.15)">A</text><text class="cls-2" transform="matrix(0.87, -0.49, 0.49, 0.87, 135, 74.73)">T</text><text class="cls-2" transform="translate(156.37 62.17) rotate(-21.55)">H</text><text class="cls-2" transform="matrix(0.97, -0.24, 0.24, 0.97, 187.22, 50.27)">S</text><text class="cls-2" transform="translate(210.49 44.87) rotate(-8.8)"> </text><text class="cls-2" transform="translate(221.16 42.71) rotate(-3.16)">A</text><text class="cls-2" transform="translate(250.86 41.08) rotate(4.65)">C</text><text class="cls-2" transform="translate(278.17 43.15) rotate(12.56)">A</text><text class="cls-2" transform="translate(307.15 49.43) rotate(21.15)">D</text><text class="cls-2" transform="translate(336.89 61.16) rotate(28.93)">E</text><text class="cls-2" transform="matrix(0.79, 0.61, -0.61, 0.79, 358.15, 72.06)">M</text><text class="cls-2" transform="translate(390.06 97.49) rotate(47.16)">Y</text><text class="cls-2" transform="translate(408.25 117.6) rotate(52.41)"> </text><text class="cls-2" transform="matrix(0.54, 0.84, -0.84, 0.54, 415.17, 126.06)">L</text><text class="cls-2" transform="translate(428.21 146.76) rotate(62.65)">I</text><text class="cls-2" transform="translate(435.42 158.6) rotate(70.28)">M</text><text class="cls-2" transform="translate(448.45 197.46) rotate(77.93)">I</text><text class="cls-2" transform="translate(451.68 211.13) rotate(83.37)">T</text><text class="cls-2" transform="translate(454.77 235.79) rotate(90.93)">E</text><text class="cls-2" transform="translate(454.89 259.88) rotate(97.76)">D</text><text class="cls-3" transform="translate(164.22 469.6) rotate(19.65)">S</text><text class="cls-3" transform="translate(202.36 483.84) rotate(4.8)">M</text><text class="cls-3" transform="translate(267.07 487.16) rotate(-11.21)">A</text><text class="cls-3" transform="translate(313.73 476.84) rotate(-23.73)">L</text><circle class="cls-4" cx="248.05" cy="244" r="192.34"/><rect class="cls-5" x="295.15" y="140.75" width="94.2" height="68.84"/><rect class="cls-6" x="200.96" y="140.75" width="94.2" height="68.84"/><rect class="cls-7" x="200.96" y="209.59" width="94.2" height="68.84"/><rect class="cls-8" x="106.76" y="278.42" width="94.2" height="68.84"/><polygon class="cls-9" points="63.82 341.9 69.07 358.08 86.09 358.08 72.32 368.08 77.58 384.26 63.82 374.26 50.05 384.26 55.31 368.08 41.55 358.08 58.56 358.08 63.82 341.9"/><polygon class="cls-9" points="432.29 341.55 437.55 357.73 454.56 357.73 440.8 367.73 446.06 383.91 432.29 373.91 418.53 383.91 423.79 367.73 410.02 357.73 427.03 357.73 432.29 341.55"/></svg>