<svg id="Layer_1" data-name="Layer 1" xmlns="http://www.w3.org/2000/svg" viewBox="0 0 470.63 478.83"><defs><style>.cls-1{fill:#231f20;stroke:#ce9431;stroke-width:2px;}.cls-1,.cls-4,.cls-9{stroke-miterlimit:10;}.cls-2{font-size:42.25px;fill:#fff;}.cls-2,.cls-3{font-family:OpenSans-Bold, Open Sans;font-weight:700;}.cls-3{font-size:57.62px;fill:#e13330;}.cls-4,.cls-9{fill:#f0a934;stroke:#d58f32;}.cls-5{fill:#c83a2d;}.cls-6{fill:#e0352c;}.cls-7{fill:#a7302b;}.cls-8{fill:#752120;}.cls-9{stroke-width:0.5px;}</style></defs><circle class="cls-1" cx="235.31" cy="235.31" r="234.31"/><text class="cls-2" transform="translate(43.89 191.86) rotate(-73.84)">S</text><text class="cls-2" transform="translate(49.98 170.29) rotate(-66.77)">P</text><text class="cls-2" transform="translate(60.15 146.7) rotate(-59.66)">E</text><text class="cls-2" transform="translate(71.54 126.94) rotate(-52.53)">C</text><text class="cls-2" transform="matrix(0.68, -0.73, 0.73, 0.68, 87.71, 106.32)">I</text><text class="cls-2" transform="matrix(0.76, -0.65, 0.65, 0.76, 96.46, 96.36)">A</text><text class="cls-2" transform="translate(117.94 78) rotate(-33.29)">L</text><text class="cls-2" transform="translate(137.51 65.44) rotate(-28.38)"> </text><text class="cls-2" transform="matrix(0.93, -0.36, 0.36, 0.93, 145.99, 59.77)">M</text><text class="cls-2" transform="matrix(0.98, -0.2, 0.2, 0.98, 182.18, 46.14)">A</text><text class="cls-2" transform="translate(209.86 40.67) rotate(-3.82)">T</text><text class="cls-2" transform="translate(233.33 38.76) rotate(4.08)">H</text><text class="cls-2" transform="translate(264.61 41.24) rotate(11.92)">S</text><text class="cls-2" transform="matrix(0.96, 0.29, -0.29, 0.96, 286.73, 46.15)"> </text><text class="cls-2" transform="translate(296.74 48.66) rotate(22.49)">A</text><text class="cls-2" transform="matrix(0.86, 0.51, -0.51, 0.86, 322.78, 59.46)">C</text><text class="cls-2" transform="matrix(0.78, 0.62, -0.62, 0.78, 345.26, 72.5)">A</text><text class="cls-2" transform="translate(367.45 89.85) rotate(46.8)">D</text><text class="cls-2" transform="translate(388.08 112.09) rotate(54.52)">E</text><text class="cls-2" transform="translate(401.81 130.13) rotate(63.48)">M</text><text class="cls-2" transform="matrix(0.29, 0.96, -0.96, 0.29, 418.67, 164.93)">Y</text><text class="cls-3" transform="matrix(0.98, 0.2, -0.2, 0.98, 180.6, 454.73)">S</text><text class="cls-3" transform="translate(218.15 463.08) rotate(-2.92)">M</text><text class="cls-3" transform="matrix(0.94, -0.33, 0.33, 0.94, 279.46, 457.91)">A</text><circle class="cls-4" cx="235.31" cy="231.47" r="182.46"/><rect class="cls-5" x="279.99" y="133.52" width="89.36" height="65.3"/><rect class="cls-6" x="190.64" y="133.52" width="89.36" height="65.3"/><rect class="cls-7" x="190.64" y="198.82" width="89.36" height="65.3"/><rect class="cls-8" x="101.28" y="264.12" width="89.36" height="65.3"/><polygon class="cls-9" points="60.54 324.34 65.53 339.69 81.67 339.69 68.61 349.18 73.6 364.53 60.54 355.04 47.48 364.53 52.47 349.18 39.41 339.69 55.55 339.69 60.54 324.34"/><polygon class="cls-9" points="410.09 324.01 415.08 339.36 431.22 339.36 418.16 348.84 423.15 364.19 410.09 354.7 397.03 364.19 402.02 348.84 388.96 339.36 405.1 339.36 410.09 324.01"/></svg>